<svg width="272" height="50" viewBox="0 0 272 50" fill="none" xmlns="http://www.w3.org/2000/svg">
<circle cx="247" cy="25" r="24.5" stroke="white"/>
<path d="M239.375 15.6888C239.375 16.4016 239.091 17.085 238.587 17.5887C238.083 18.0925 237.399 18.3753 236.686 18.3749C235.973 18.3746 235.29 18.0911 234.786 17.5868C234.282 17.0826 234 16.3989 234 15.6861C234 14.9734 234.284 14.2899 234.788 13.7862C235.292 13.2824 235.976 12.9996 236.689 13C237.402 13.0004 238.085 13.2838 238.589 13.7881C239.092 14.2923 239.375 14.976 239.375 15.6888ZM239.456 20.365H234.081V37.1885H239.456V20.365ZM247.948 20.365H242.6V37.1885H247.894V28.3602C247.894 23.4421 254.304 22.9853 254.304 28.3602V37.1885H259.612V26.5327C259.612 18.2419 250.125 18.551 247.894 22.6225L247.948 20.365Z" fill="white"/>
<circle cx="173" cy="25" r="24.5" stroke="white"/>
<path d="M170.75 29.4373L177.724 25.4061L170.75 21.3749V29.4373ZM186.283 18.9159C186.458 19.5475 186.579 20.394 186.66 21.469C186.754 22.544 186.794 23.4711 186.794 24.2774L186.875 25.4061C186.875 28.3489 186.66 30.5123 186.283 31.8963C185.947 33.1057 185.168 33.8851 183.959 34.221C183.327 34.3957 182.172 34.5166 180.398 34.5972C178.651 34.6913 177.052 34.7316 175.574 34.7316L173.437 34.8122C167.807 34.8122 164.3 34.5972 162.916 34.221C161.707 33.8851 160.927 33.1057 160.591 31.8963C160.417 31.2648 160.296 30.4182 160.215 29.3432C160.121 28.2683 160.081 27.3411 160.081 26.5349L160 25.4061C160 22.4633 160.215 20.2999 160.591 18.9159C160.927 17.7065 161.707 16.9272 162.916 16.5912C163.547 16.4166 164.703 16.2956 166.477 16.215C168.224 16.1209 169.823 16.0806 171.301 16.0806L173.437 16C179.068 16 182.575 16.215 183.959 16.5912C185.168 16.9272 185.947 17.7065 186.283 18.9159Z" fill="white"/>
<circle cx="99" cy="25" r="24.5" stroke="white"/>
<path d="M113.111 16.6875C112.076 17.1578 110.961 17.4668 109.805 17.6146C110.988 16.9025 111.901 15.7737 112.331 14.4166C111.216 15.0884 109.98 15.5587 108.677 15.8275C107.615 14.6719 106.123 14 104.43 14C101.273 14 98.6926 16.58 98.6926 19.7646C98.6926 20.2215 98.7464 20.6649 98.8404 21.0815C94.0567 20.8396 89.7971 18.5418 86.9618 15.0615C86.4647 15.9081 86.1825 16.9025 86.1825 17.9506C86.1825 19.9527 87.1903 21.7265 88.749 22.7343C87.795 22.7343 86.9081 22.4655 86.1287 22.0624V22.1027C86.1287 24.8977 88.1175 27.2358 90.7512 27.7598C89.9057 27.9922 89.0178 28.0244 88.1578 27.8539C88.5227 28.9994 89.2375 30.0017 90.2016 30.72C91.1657 31.4382 92.3307 31.8363 93.5327 31.8582C91.4952 33.4713 88.9694 34.3433 86.3706 34.3307C85.9137 34.3307 85.4569 34.3038 85 34.25C87.5531 35.8894 90.5899 36.8434 93.8418 36.8434C104.43 36.8434 110.249 28.0554 110.249 20.4365C110.249 20.1812 110.249 19.9393 110.235 19.684C111.364 18.8777 112.331 17.8565 113.111 16.6875Z" fill="white"/>
<circle cx="25" cy="25" r="24.5" stroke="white"/>
<path d="M27.4061 27.4529H30.7654L32.1092 22.078H27.4061V19.3905C27.4061 18.0065 27.4061 16.7031 30.0936 16.7031H32.1092V12.1881C31.6711 12.1303 30.017 12 28.2701 12C24.6219 12 22.0312 14.2266 22.0312 18.3155V22.078H18V27.4529H22.0312V38.8746H27.4061V27.4529Z" fill="white"/>
</svg>
